<?xml version="1.0"?>
<svg version="1.1" xmlns="http://www.w3.org/2000/svg" width="400" height="50" style=""><path fill="#e94949" d="M16.07666015625,26.07666015625q0-0.66650390625,0.042724609375-1.956787109375t0.128173828125-2.691650390625t0.22216796875-2.623291015625t0.39306640625-1.751708984375q0.13671875-0.2734375,0.418701171875-0.367431640625t0.555419921875-0.093994140625q0.1708984375,0,0.572509765625,0.093994140625t0.401611328125,0.367431640625q0,0.42724609375-0.1025390625,1.614990234375t-0.18798828125,2.725830078125t-0.11962890625,3.19580078125l0,0.73486328125q0,1.24755859375,0.08544921875,2.34130859375q0.11962890625,1.4013671875,0.452880859375,2.30712890625t0.999755859375,0.90576171875q0.90576171875,0,1.69189453125-0.538330078125t1.435546875-1.4013671875t1.170654296875-1.93115234375t0.888671875-2.10205078125t0.615234375-1.905517578125t0.350341796875-1.3671875q0.1025390625-0.56396484375,0.179443359375-1.50390625t0.247802734375-1.845703125t0.606689453125-1.572265625t1.273193359375-0.66650390625q0.49560546875,0,0.948486328125,0.1708984375t0.589599609375,0.73486328125q-0.2734375,1.04248046875-0.46142578125,2.896728515625t-0.299072265625,3.887939453125t-0.162353515625,3.939208984375t-0.05126953125,3.101806640625q0,1.3330078125,0.0341796875,3.255615234375t0.11962890625,3.973388671875t0.196533203125,3.990478515625t0.247802734375,3.238525390625q0.13671875,0.2734375,0.13671875,0.63232421875q0,0.42724609375-0.1708984375,0.66650390625t-0.469970703125,0.35888671875t-0.6494140625,0.15380859375t-0.675048828125,0.0341796875q-0.49560546875,0-1.102294921875-0.1708984375t-0.743408203125-0.70068359375q-0.1708984375-0.63232421875-0.281982421875-1.666259765625t-0.162353515625-2.255859375t-0.08544921875-2.554931640625t-0.0341796875-2.554931640625t0.01708984375-2.27294921875t0.01708984375-1.717529296875q0-1.298828125,0.05126953125-2.554931640625t0.11962890625-2.554931640625q-0.42724609375,0.87158203125-0.999755859375,1.768798828125t-1.307373046875,1.632080078125t-1.640625,1.204833984375t-1.96533203125,0.469970703125q-1.3671875,0-2.0849609375-0.73486328125t-1.04248046875-1.820068359375t-0.367431640625-2.30712890625t-0.042724609375-2.213134765625z M33.434301757812,36.826171875q0-1.1962890625,0.264892578125-2.81982421875t0.897216796875-3.076171875t1.666259765625-2.469482421875t2.606201171875-1.016845703125q1.4697265625,0,2.20458984375,0.845947265625t0.73486328125,2.281494140625q0,0.93994140625-0.350341796875,2.059326171875t-0.999755859375,2.119140625t-1.5380859375,1.666259765625t-1.982421875,0.66650390625l-0.4443359375-0.0341796875q0,0.46142578125,0.13671875,1.239013671875t0.401611328125,1.546630859375t0.68359375,1.35009765625t1.016845703125,0.5810546875q0.87158203125,0,1.6748046875-0.70068359375t1.52099609375-1.55517578125t1.3330078125-1.55517578125t1.1279296875-0.70068359375q0.2734375,0,0.56396484375,0.08544921875t0.32470703125,0.478515625q0,0.2392578125-0.128173828125,0.39306640625t-0.230712890625,0.341796875q-0.52978515625,0.90576171875-1.153564453125,1.72607421875t-1.409912109375,1.48681640625t-1.717529296875,1.051025390625t-2.059326171875,0.384521484375q-1.4697265625,0-2.44384765625-0.521240234375t-1.572265625-1.4013671875t-0.863037109375-2.03369140625t-0.264892578125-2.418212890625z M36.493383789062,35.52734375l0.478515625,0.42724609375q0.341796875,0.3076171875,0.68359375,0.13671875t0.615234375-0.623779296875t0.504150390625-1.119384765625t0.41015625-1.3671875t0.264892578125-1.3671875t0.08544921875-1.11083984375l0-0.5810546875t-0.05126953125-0.615234375t-0.179443359375-0.487060546875t-0.401611328125-0.247802734375q-0.08544921875-0.01708984375-0.15380859375-0.01708984375q-0.5810546875,0-0.9912109375,0.73486328125q-0.4443359375,0.8203125-0.7177734375,1.990966796875t-0.39306640625,2.401123046875t-0.15380859375,1.845703125z M54.409350585937,26.07666015625q0-0.66650390625,0.042724609375-1.956787109375t0.128173828125-2.691650390625t0.22216796875-2.623291015625t0.39306640625-1.751708984375q0.13671875-0.2734375,0.418701171875-0.367431640625t0.555419921875-0.093994140625q0.1708984375,0,0.572509765625,0.093994140625t0.401611328125,0.367431640625q0,0.42724609375-0.1025390625,1.614990234375t-0.18798828125,2.725830078125t-0.11962890625,3.19580078125l0,0.73486328125q0,1.24755859375,0.08544921875,2.34130859375q0.11962890625,1.4013671875,0.452880859375,2.30712890625t0.999755859375,0.90576171875q0.90576171875,0,1.69189453125-0.538330078125t1.435546875-1.4013671875t1.170654296875-1.93115234375t0.888671875-2.10205078125t0.615234375-1.905517578125t0.350341796875-1.3671875q0.1025390625-0.56396484375,0.179443359375-1.50390625t0.247802734375-1.845703125t0.606689453125-1.572265625t1.273193359375-0.66650390625q0.49560546875,0,0.948486328125,0.1708984375t0.589599609375,0.73486328125q-0.2734375,1.04248046875-0.46142578125,2.896728515625t-0.299072265625,3.887939453125t-0.162353515625,3.939208984375t-0.05126953125,3.101806640625q0,1.3330078125,0.0341796875,3.255615234375t0.11962890625,3.973388671875t0.196533203125,3.990478515625t0.247802734375,3.238525390625q0.13671875,0.2734375,0.13671875,0.63232421875q0,0.42724609375-0.1708984375,0.66650390625t-0.469970703125,0.35888671875t-0.6494140625,0.15380859375t-0.675048828125,0.0341796875q-0.49560546875,0-1.102294921875-0.1708984375t-0.743408203125-0.70068359375q-0.1708984375-0.63232421875-0.281982421875-1.666259765625t-0.162353515625-2.255859375t-0.08544921875-2.554931640625t-0.0341796875-2.554931640625t0.01708984375-2.27294921875t0.01708984375-1.717529296875q0-1.298828125,0.05126953125-2.554931640625t0.11962890625-2.554931640625q-0.42724609375,0.87158203125-0.999755859375,1.768798828125t-1.307373046875,1.632080078125t-1.640625,1.204833984375t-1.96533203125,0.469970703125q-1.3671875,0-2.0849609375-0.73486328125t-1.04248046875-1.820068359375t-0.367431640625-2.30712890625t-0.042724609375-2.213134765625z M71.7669921875,35.71533203125q0-1.572265625,0.367431640625-3.084716796875t0.623779296875-3.016357421875q0.068359375-0.39306640625,0.538330078125-0.487060546875t0.794677734375-0.093994140625q0.56396484375,0,0.90576171875,0.1708984375q0.13671875,0.068359375,0.25634765625,0.15380859375t0.11962890625,0.22216796875q0,1.4697265625-0.350341796875,2.87109375t-0.350341796875,2.9736328125q0,0.52978515625,0.076904296875,0.999755859375t0.145263671875,0.931396484375l0.1025390625,0.49560546875q0,0.13671875,0.01708984375,0.2392578125t0.05126953125,0.2392578125q0,0.3076171875-0.435791015625,0.418701171875t-0.760498046875,0.111083984375q-0.49560546875,0-0.914306640625-0.196533203125t-0.657958984375-0.675048828125l-0.2392578125-0.49560546875q-0.205078125-0.39306640625-0.205078125-0.880126953125t-0.08544921875-0.897216796875z M72.8607421875,25.42724609375l0-0.32470703125q0-0.80322265625,0.401611328125-1.435546875t1.204833984375-0.63232421875q0.1025390625,0,0.196533203125,0.01708984375t0.196533203125,0.01708984375q0.205078125,0.0341796875,0.538330078125,0.162353515625t0.333251953125,0.401611328125l0,0.0341796875q-0.068359375,0.13671875-0.08544921875,0.281982421875t-0.08544921875,0.247802734375l0.0341796875-0.0341796875q-0.205078125,0.52978515625-0.333251953125,0.8544921875t-0.281982421875,0.521240234375t-0.384521484375,0.281982421875t-0.657958984375,0.08544921875q-0.068359375,0-0.2392578125-0.01708984375t-0.367431640625-0.068359375t-0.333251953125-0.13671875t-0.13671875-0.25634765625z M79.246704101562,36.2109375l0-0.49560546875q0-0.615234375,0.0341796875-1.162109375q0.0341796875-0.76904296875,0.0341796875-1.2646484375q0-0.2734375,0.0341796875-0.623779296875t0.1708984375-0.555419921875q0.1708984375-0.1708984375,0.401611328125-0.350341796875t0.504150390625-0.179443359375q0.87158203125,0,1.3671875,0.196533203125t0.52978515625,0.811767578125l0.068359375,0.52978515625q0.3076171875-0.73486328125,0.8203125-1.820068359375t1.187744140625-2.06787109375t1.52099609375-1.6748046875t1.785888671875-0.692138671875q0.87158203125,0,1.435546875,0.8203125t0.897216796875,2.093505859375t0.469970703125,2.8369140625t0.18798828125,3.067626953125t0.068359375,2.742919921875t0.11962890625,1.871337890625q0.068359375,0.52978515625,0.230712890625,1.119384765625t0.162353515625,1.085205078125q0,0.13671875-0.196533203125,0.264892578125t-0.418701171875,0.213623046875t-0.452880859375,0.13671875t-0.333251953125,0.05126953125q-0.66650390625,0-0.948486328125-0.999755859375t-0.350341796875-2.503662109375t-0.068359375-3.255615234375t-0.11962890625-3.255615234375t-0.487060546875-2.503662109375t-1.170654296875-1.033935546875q-0.73486328125,0-1.52099609375,0.948486328125t-1.35009765625,2.520751953125q-0.546875,1.572265625-0.751953125,3.57177734375q-0.068359375,0.63232421875-0.068359375,1.2646484375q0,1.38427734375,0.29052734375,2.7685546875q0.0341796875,0.2392578125-0.196533203125,0.35888671875t-0.572509765625,0.18798828125t-0.692138671875,0.08544921875t-0.538330078125,0.01708984375q-0.66650390625,0-1.068115234375-0.469970703125t-0.623779296875-1.204833984375t-0.299072265625-1.649169921875t-0.093994140625-1.802978515625z M94.075048828125,25.2734375q0-0.2392578125,0.5126953125-0.41015625t1.162109375-0.281982421875t1.256103515625-0.162353515625t0.828857421875-0.08544921875q0-0.46142578125,0.0341796875-0.931396484375t0.18798828125-0.83740234375t0.487060546875-0.589599609375t0.931396484375-0.22216796875q0.49560546875,0,0.751953125,0.11962890625t0.546875,0.49560546875q0.068359375,0.205078125,0.068359375,0.39306640625l0,0.572509765625t-0.0341796875,0.589599609375q0.63232421875-0.068359375,1.256103515625-0.162353515625t1.256103515625-0.093994140625q0.46142578125,0,0.63232421875,0.01708984375t0.341796875,0.41015625q0.13671875,0.39306640625-0.333251953125,0.59814453125t-1.1279296875,0.3076171875t-1.307373046875,0.15380859375t-0.7861328125,0.05126953125q-0.205078125,2.939453125-0.418701171875,5.82763671875t-0.213623046875,5.86181640625q0,1.3330078125,0.08544921875,2.75146484375t0.478515625,2.68310546875q0.1025390625,0.39306640625,0.341796875,0.73486328125t0.2392578125,0.73486328125q0,0.2392578125-0.18798828125,0.3759765625t-0.452880859375,0.230712890625t-0.52978515625,0.111083984375t-0.435791015625,0.01708984375q-1.07666015625,0-1.640625-0.80322265625t-0.811767578125-1.922607421875t-0.264892578125-2.298583984375t-0.01708984375-1.9140625q0-1.50390625,0.059814453125-3.076171875t0.145263671875-3.1103515625t0.2392578125-3.0078125t0.35888671875-2.734375q-0.59814453125,0.068359375-1.170654296875,0.15380859375t-1.170654296875,0.08544921875q-0.13671875,0-0.367431640625-0.01708984375t-0.435791015625-0.08544921875t-0.350341796875-0.18798828125t-0.145263671875-0.341796875z M113.83671875,39.7314453125q-0.01708984375-0.5126953125-0.01708984375-1.025390625q0-1.6064453125,0.1708984375-3.22998046875q0.205078125-2.1533203125,0.2734375-4.23828125q0.068359375-2.44384765625,0.205078125-5.07568359375q0.08544921875-1.435546875,0.08544921875-2.8369140625q0-1.14501953125-0.05126953125-2.27294921875q0.1708984375-0.39306640625,0.452880859375-0.52978515625t0.709228515625-0.13671875q0.205078125,0,0.435791015625,0.0341796875t0.401611328125,0.1708984375q0.2392578125,0.0341796875,0.589599609375,0.068359375t0.538330078125,0.205078125q0.068359375,0.1025390625,0.350341796875,0.70068359375t0.66650390625,1.45263671875t0.80322265625,1.854248046875t0.80322265625,1.89697265625t0.66650390625,1.580810546875t0.350341796875,0.8544921875q1.6064453125-2.9052734375,3.14453125-5.972900390625t3.36669921875-5.784912109375q0.1708984375-0.2392578125,0.589599609375-0.350341796875t0.692138671875-0.111083984375q0.73486328125,0,1.068115234375,0.350341796875t0.435791015625,0.897216796875q0.068359375,0.341796875,0.08544921875,0.73486328125q0.01708984375,0.205078125-0.01708984375,0.42724609375q-0.068359375,0.63232421875-0.068359375,1.1962890625q0,3.98193359375-0.2734375,7.904052734375t-0.49560546875,7.921142578125q-0.0341796875,0.8203125-0.0341796875,1.708984375t0.0341796875,1.845703125q0.01708984375,0.341796875,0.01708984375,0.66650390625q0,1.50390625-0.25634765625,2.802734375q-0.2392578125,0.39306640625-0.7861328125,0.49560546875t-0.9228515625,0.1025390625q-0.80322265625,0-1.5380859375-0.3759765625l-0.18798828125-0.22216796875l-0.068359375-0.2734375t-0.0341796875-0.2734375q0-2.47802734375,0.179443359375-4.990234375t0.401611328125-5.015869140625t0.469970703125-4.998779296875t0.418701171875-4.990234375q-1.00830078125,1.6748046875-1.956787109375,3.409423828125t-1.785888671875,3.529052734375q-0.3076171875,0.70068359375-0.589599609375,1.50390625t-0.675048828125,1.435546875q-0.205078125,0.3076171875-0.692138671875,0.3759765625t-0.845947265625,0.068359375q-0.341796875,0-0.709228515625-0.11962890625t-0.504150390625-0.5126953125q-0.63232421875-1.93115234375-1.35009765625-3.77685546875t-1.45263671875-3.74267578125q0,1.2646484375,0.05126953125,3.272705078125t0.05126953125,4.161376953125t-0.068359375,4.11865234375t-0.32470703125,3.1103515625q-0.068359375,0.42724609375-0.555419921875,0.52978515625t-0.845947265625,0.1025390625q-0.2734375,0-0.521240234375-0.0341796875t-0.487060546875-0.13671875z M134.13381347656,32.314453125q0-0.49560546875,0.281982421875-0.6494140625t0.709228515625-0.15380859375q0.70068359375,0,1.068115234375,0.264892578125t0.367431640625,0.931396484375q0,0.80322265625,0.11962890625,2.008056640625t0.350341796875,2.34130859375t0.546875,1.956787109375t0.657958984375,0.8203125q0.63232421875,0,1.119384765625-0.97412109375t0.8544921875-2.392578125t0.63232421875-3.050537109375t0.367431640625-2.913818359375q0.068359375-0.70068359375,0.333251953125-1.016845703125t0.965576171875-0.316162109375q0.80322265625,0,1.170654296875,0.66650390625t0.469970703125,1.640625q0.08544921875,0.83740234375,0.08544921875,1.7431640625l0,0.29052734375l0,0.68359375q0,0.6494140625,0.01708984375,1.162109375l0.49560546875,10.47607421875l0.068359375,1.7431640625q0.0341796875,0.2392578125,0.05126953125,0.452880859375t0.01708984375,0.452880859375q0,0.97412109375-0.418701171875,1.256103515625t-1.358642578125,0.281982421875q-0.205078125,0-0.521240234375-0.0341796875t-0.615234375-0.13671875t-0.5126953125-0.281982421875t-0.213623046875-0.452880859375l0.068359375-0.1708984375q0.08544921875-1.025390625,0.08544921875-2.1533203125l0-0.35888671875q-0.01708984375-1.3330078125-0.08544921875-2.7001953125t-0.15380859375-2.734375t-0.08544921875-2.6318359375q-0.2392578125,0.52978515625-0.555419921875,1.09375t-0.73486328125,1.016845703125t-0.948486328125,0.751953125t-1.1962890625,0.299072265625q-0.97412109375,0-1.6064453125-0.5126953125t-0.982666015625-1.3330078125t-0.504150390625-1.837158203125t-0.205078125-2.03369140625t-0.068359375-1.939697265625t-0.13671875-1.55517578125z M148.38110351562,35.71533203125q0-1.572265625,0.367431640625-3.084716796875t0.623779296875-3.016357421875q0.068359375-0.39306640625,0.538330078125-0.487060546875t0.794677734375-0.093994140625q0.56396484375,0,0.90576171875,0.1708984375q0.13671875,0.068359375,0.25634765625,0.15380859375t0.11962890625,0.22216796875q0,1.4697265625-0.350341796875,2.87109375t-0.350341796875,2.9736328125q0,0.52978515625,0.076904296875,0.999755859375t0.145263671875,0.931396484375l0.1025390625,0.49560546875q0,0.13671875,0.01708984375,0.2392578125t0.05126953125,0.2392578125q0,0.3076171875-0.435791015625,0.418701171875t-0.760498046875,0.111083984375q-0.49560546875,0-0.914306640625-0.196533203125t-0.657958984375-0.675048828125l-0.2392578125-0.49560546875q-0.205078125-0.39306640625-0.205078125-0.880126953125t-0.08544921875-0.897216796875z M149.47485351562,25.42724609375l0-0.32470703125q0-0.80322265625,0.401611328125-1.435546875t1.204833984375-0.63232421875q0.1025390625,0,0.196533203125,0.01708984375t0.196533203125,0.01708984375q0.205078125,0.0341796875,0.538330078125,0.162353515625t0.333251953125,0.401611328125l0,0.0341796875q-0.068359375,0.13671875-0.08544921875,0.281982421875t-0.08544921875,0.247802734375l0.0341796875-0.0341796875q-0.205078125,0.52978515625-0.333251953125,0.8544921875t-0.281982421875,0.521240234375t-0.384521484375,0.281982421875t-0.657958984375,0.08544921875q-0.068359375,0-0.2392578125-0.01708984375t-0.367431640625-0.068359375t-0.333251953125-0.13671875t-0.13671875-0.25634765625z M155.86081542969,36.2109375l0-0.49560546875q0-0.615234375,0.0341796875-1.162109375q0.0341796875-0.76904296875,0.0341796875-1.2646484375q0-0.2734375,0.0341796875-0.623779296875t0.1708984375-0.555419921875q0.1708984375-0.1708984375,0.401611328125-0.350341796875t0.504150390625-0.179443359375q0.87158203125,0,1.3671875,0.196533203125t0.52978515625,0.811767578125l0.068359375,0.52978515625q0.3076171875-0.73486328125,0.8203125-1.820068359375t1.187744140625-2.06787109375t1.52099609375-1.6748046875t1.785888671875-0.692138671875q0.87158203125,0,1.435546875,0.8203125t0.897216796875,2.093505859375t0.469970703125,2.8369140625t0.18798828125,3.067626953125t0.068359375,2.742919921875t0.11962890625,1.871337890625q0.068359375,0.52978515625,0.230712890625,1.119384765625t0.162353515625,1.085205078125q0,0.13671875-0.196533203125,0.264892578125t-0.418701171875,0.213623046875t-0.452880859375,0.13671875t-0.333251953125,0.05126953125q-0.66650390625,0-0.948486328125-0.999755859375t-0.350341796875-2.503662109375t-0.068359375-3.255615234375t-0.11962890625-3.255615234375t-0.487060546875-2.503662109375t-1.170654296875-1.033935546875q-0.73486328125,0-1.52099609375,0.948486328125t-1.35009765625,2.520751953125q-0.546875,1.572265625-0.751953125,3.57177734375q-0.068359375,0.63232421875-0.068359375,1.2646484375q0,1.38427734375,0.29052734375,2.7685546875q0.0341796875,0.2392578125-0.196533203125,0.35888671875t-0.572509765625,0.18798828125t-0.692138671875,0.08544921875t-0.538330078125,0.01708984375q-0.66650390625,0-1.068115234375-0.469970703125t-0.623779296875-1.204833984375t-0.299072265625-1.649169921875t-0.093994140625-1.802978515625z M170.68916015625,25.2734375q0-0.2392578125,0.5126953125-0.41015625t1.162109375-0.281982421875t1.256103515625-0.162353515625t0.828857421875-0.08544921875q0-0.46142578125,0.0341796875-0.931396484375t0.18798828125-0.83740234375t0.487060546875-0.589599609375t0.931396484375-0.22216796875q0.49560546875,0,0.751953125,0.11962890625t0.546875,0.49560546875q0.068359375,0.205078125,0.068359375,0.39306640625l0,0.572509765625t-0.0341796875,0.589599609375q0.63232421875-0.068359375,1.256103515625-0.162353515625t1.256103515625-0.093994140625q0.46142578125,0,0.63232421875,0.01708984375t0.341796875,0.41015625q0.13671875,0.39306640625-0.333251953125,0.59814453125t-1.1279296875,0.3076171875t-1.307373046875,0.15380859375t-0.7861328125,0.05126953125q-0.205078125,2.939453125-0.418701171875,5.82763671875t-0.213623046875,5.86181640625q0,1.3330078125,0.08544921875,2.75146484375t0.478515625,2.68310546875q0.1025390625,0.39306640625,0.341796875,0.73486328125t0.2392578125,0.73486328125q0,0.2392578125-0.18798828125,0.3759765625t-0.452880859375,0.230712890625t-0.52978515625,0.111083984375t-0.435791015625,0.01708984375q-1.07666015625,0-1.640625-0.80322265625t-0.811767578125-1.922607421875t-0.264892578125-2.298583984375t-0.01708984375-1.9140625q0-1.50390625,0.059814453125-3.076171875t0.145263671875-3.1103515625t0.2392578125-3.0078125t0.35888671875-2.734375q-0.59814453125,0.068359375-1.170654296875,0.15380859375t-1.170654296875,0.08544921875q-0.13671875,0-0.367431640625-0.01708984375t-0.435791015625-0.08544921875t-0.350341796875-0.18798828125t-0.145263671875-0.341796875z M190.45083007813,39.7314453125q-0.01708984375-0.5126953125-0.01708984375-1.025390625q0-1.6064453125,0.1708984375-3.22998046875q0.205078125-2.1533203125,0.2734375-4.23828125q0.068359375-2.44384765625,0.205078125-5.07568359375q0.08544921875-1.435546875,0.08544921875-2.8369140625q0-1.14501953125-0.05126953125-2.27294921875q0.1708984375-0.39306640625,0.452880859375-0.52978515625t0.709228515625-0.13671875q0.205078125,0,0.435791015625,0.0341796875t0.401611328125,0.1708984375q0.2392578125,0.0341796875,0.589599609375,0.068359375t0.538330078125,0.205078125q0.068359375,0.1025390625,0.350341796875,0.70068359375t0.66650390625,1.45263671875t0.80322265625,1.854248046875t0.80322265625,1.89697265625t0.66650390625,1.580810546875t0.350341796875,0.8544921875q1.6064453125-2.9052734375,3.14453125-5.972900390625t3.36669921875-5.784912109375q0.1708984375-0.2392578125,0.589599609375-0.350341796875t0.692138671875-0.111083984375q0.73486328125,0,1.068115234375,0.350341796875t0.435791015625,0.897216796875q0.068359375,0.341796875,0.08544921875,0.73486328125q0.01708984375,0.205078125-0.01708984375,0.42724609375q-0.068359375,0.63232421875-0.068359375,1.1962890625q0,3.98193359375-0.2734375,7.904052734375t-0.49560546875,7.921142578125q-0.0341796875,0.8203125-0.0341796875,1.708984375t0.0341796875,1.845703125q0.01708984375,0.341796875,0.01708984375,0.66650390625q0,1.50390625-0.25634765625,2.802734375q-0.2392578125,0.39306640625-0.7861328125,0.49560546875t-0.9228515625,0.1025390625q-0.80322265625,0-1.5380859375-0.3759765625l-0.18798828125-0.22216796875l-0.068359375-0.2734375t-0.0341796875-0.2734375q0-2.47802734375,0.179443359375-4.990234375t0.401611328125-5.015869140625t0.469970703125-4.998779296875t0.418701171875-4.990234375q-1.00830078125,1.6748046875-1.956787109375,3.409423828125t-1.785888671875,3.529052734375q-0.3076171875,0.70068359375-0.589599609375,1.50390625t-0.675048828125,1.435546875q-0.205078125,0.3076171875-0.692138671875,0.3759765625t-0.845947265625,0.068359375q-0.341796875,0-0.709228515625-0.11962890625t-0.504150390625-0.5126953125q-0.63232421875-1.93115234375-1.35009765625-3.77685546875t-1.45263671875-3.74267578125q0,1.2646484375,0.05126953125,3.272705078125t0.05126953125,4.161376953125t-0.068359375,4.11865234375t-0.32470703125,3.1103515625q-0.068359375,0.42724609375-0.555419921875,0.52978515625t-0.845947265625,0.1025390625q-0.2734375,0-0.521240234375-0.0341796875t-0.487060546875-0.13671875z M210.74792480469,32.314453125q0-0.49560546875,0.281982421875-0.6494140625t0.709228515625-0.15380859375q0.70068359375,0,1.068115234375,0.264892578125t0.367431640625,0.931396484375q0,0.80322265625,0.11962890625,2.008056640625t0.350341796875,2.34130859375t0.546875,1.956787109375t0.657958984375,0.8203125q0.63232421875,0,1.119384765625-0.97412109375t0.8544921875-2.392578125t0.63232421875-3.050537109375t0.367431640625-2.913818359375q0.068359375-0.70068359375,0.333251953125-1.016845703125t0.965576171875-0.316162109375q0.80322265625,0,1.170654296875,0.66650390625t0.469970703125,1.640625q0.08544921875,0.83740234375,0.08544921875,1.7431640625l0,0.29052734375l0,0.68359375q0,0.6494140625,0.01708984375,1.162109375l0.49560546875,10.47607421875l0.068359375,1.7431640625q0.0341796875,0.2392578125,0.05126953125,0.452880859375t0.01708984375,0.452880859375q0,0.97412109375-0.418701171875,1.256103515625t-1.358642578125,0.281982421875q-0.205078125,0-0.521240234375-0.0341796875t-0.615234375-0.13671875t-0.5126953125-0.281982421875t-0.213623046875-0.452880859375l0.068359375-0.1708984375q0.08544921875-1.025390625,0.08544921875-2.1533203125l0-0.35888671875q-0.01708984375-1.3330078125-0.08544921875-2.7001953125t-0.15380859375-2.734375t-0.08544921875-2.6318359375q-0.2392578125,0.52978515625-0.555419921875,1.09375t-0.73486328125,1.016845703125t-0.948486328125,0.751953125t-1.1962890625,0.299072265625q-0.97412109375,0-1.6064453125-0.5126953125t-0.982666015625-1.3330078125t-0.504150390625-1.837158203125t-0.205078125-2.03369140625t-0.068359375-1.939697265625t-0.13671875-1.55517578125z M224.99521484375,36.12548828125q0-1.162109375,0.316162109375-2.23876953125t0.948486328125-1.922607421875t1.580810546875-1.35009765625t2.196044921875-0.504150390625q0.76904296875,0,1.700439453125,0.230712890625t1.751708984375,0.68359375t1.3671875,1.153564453125t0.546875,1.6064453125q0,0.42724609375-0.145263671875,0.6494140625t-0.589599609375,0.22216796875l-0.18798828125-0.0341796875q0.49560546875,1.3330078125,0.8544921875,2.734375t0.70068359375,2.802734375q0.13671875,0.2734375,0.205078125,0.487060546875t0.068359375,0.418701171875q0,0.2734375-0.15380859375,0.452880859375t-0.401611328125,0.264892578125t-0.5126953125,0.11962890625t-0.469970703125,0.0341796875q-0.73486328125,0-1.102294921875-0.25634765625t-0.52978515625-0.70068359375t-0.196533203125-0.999755859375t-0.13671875-1.119384765625q-0.205078125,0.66650390625-0.538330078125,1.298828125t-0.7861328125,1.136474609375t-1.068115234375,0.80322265625t-1.38427734375,0.299072265625q-1.1279296875,0-1.89697265625-0.6494140625t-1.239013671875-1.597900390625t-0.68359375-2.025146484375t-0.213623046875-1.99951171875z M227.42197265625,35.88623046875q0,0.63232421875,0.08544921875,1.3330078125t0.281982421875,1.38427734375t0.504150390625,1.290283203125t0.76904296875,1.068115234375q0.83740234375-0.90576171875,1.239013671875-2.20458984375t0.7177734375-2.503662109375t0.7177734375-2.06787109375t1.239013671875-0.863037109375q0.52978515625,0,0.888671875,0.18798828125q-0.1708984375-0.42724609375-0.56396484375-0.828857421875t-0.880126953125-0.73486328125t-1.00830078125-0.546875t-0.982666015625-0.213623046875q-0.13671875,0-0.316162109375,0.042724609375t-0.281982421875,0.008544921875q-0.70068359375,0.205078125-1.153564453125,0.709228515625t-0.73486328125,1.187744140625t-0.401611328125,1.4013671875t-0.11962890625,1.35009765625z M239.10578613281,25.2734375q0-0.2392578125,0.5126953125-0.41015625t1.162109375-0.281982421875t1.256103515625-0.162353515625t0.828857421875-0.08544921875q0-0.46142578125,0.0341796875-0.931396484375t0.18798828125-0.83740234375t0.487060546875-0.589599609375t0.931396484375-0.22216796875q0.49560546875,0,0.751953125,0.11962890625t0.546875,0.49560546875q0.068359375,0.205078125,0.068359375,0.39306640625l0,0.572509765625t-0.0341796875,0.589599609375q0.63232421875-0.068359375,1.256103515625-0.162353515625t1.256103515625-0.093994140625q0.46142578125,0,0.63232421875,0.01708984375t0.341796875,0.41015625q0.13671875,0.39306640625-0.333251953125,0.59814453125t-1.1279296875,0.3076171875t-1.307373046875,0.15380859375t-0.7861328125,0.05126953125q-0.205078125,2.939453125-0.418701171875,5.82763671875t-0.213623046875,5.86181640625q0,1.3330078125,0.08544921875,2.75146484375t0.478515625,2.68310546875q0.1025390625,0.39306640625,0.341796875,0.73486328125t0.2392578125,0.73486328125q0,0.2392578125-0.18798828125,0.3759765625t-0.452880859375,0.230712890625t-0.52978515625,0.111083984375t-0.435791015625,0.01708984375q-1.07666015625,0-1.640625-0.80322265625t-0.811767578125-1.922607421875t-0.264892578125-2.298583984375t-0.01708984375-1.9140625q0-1.50390625,0.059814453125-3.076171875t0.145263671875-3.1103515625t0.2392578125-3.0078125t0.35888671875-2.734375q-0.59814453125,0.068359375-1.170654296875,0.15380859375t-1.170654296875,0.08544921875q-0.13671875,0-0.367431640625-0.01708984375t-0.435791015625-0.08544921875t-0.350341796875-0.18798828125t-0.145263671875-0.341796875z"/><path fill="#" d=""/></svg>
